<svg width="30" height="30" viewBox="0 0 30 30" fill="none" xmlns="http://www.w3.org/2000/svg">
<circle cx="15" cy="15" r="15" fill="#070F21" fill-opacity="0.1"/>
<g opacity="0.8" clip-path="url(#clip0_2_849)">
<path d="M23.8164 14.537L19.6538 10.1269C19.398 9.85559 18.971 9.84321 18.6996 10.0993C18.4287 10.3551 18.4161 10.7823 18.6722 11.0535L22.3975 15L18.6722 18.947C18.4161 19.2181 18.4287 19.6452 18.6996 19.9012C18.8301 20.0243 18.9968 20.0852 19.1629 20.0852C19.3422 20.0852 19.5213 20.0142 19.6539 19.8739L23.8164 15.4637C24.0618 15.2034 24.0618 14.797 23.8164 14.537Z" fill="#070F21"/>
<path d="M11.3285 18.9468L7.60341 15.0001L11.3285 11.0533C11.5844 10.7822 11.572 10.3549 11.3009 10.0991C11.0299 9.84327 10.6024 9.85564 10.3466 10.1268L6.18411 14.5368C5.93865 14.7969 5.93865 15.2035 6.18411 15.4636L10.3468 19.8738C10.4796 20.0145 10.6585 20.0853 10.8378 20.0853C11.0039 20.0853 11.1706 20.0241 11.3009 19.901C11.5722 19.6452 11.5844 19.2179 11.3285 18.9468Z" fill="#070F21"/>
<path d="M16.0922 7.85195C15.7239 7.79616 15.3792 8.04904 15.3229 8.41737L13.3429 21.3774C13.2867 21.746 13.5398 22.0905 13.9083 22.1467C13.943 22.1519 13.9772 22.1544 14.0112 22.1544C14.339 22.1544 14.6266 21.9152 14.6776 21.5813L16.6576 8.62124C16.7139 8.25266 16.4608 7.9082 16.0922 7.85195Z" fill="#070F21"/>
</g>
<defs>
<clipPath id="clip0_2_849">
<rect width="18" height="18" fill="white" transform="translate(6 6)"/>
</clipPath>
</defs>
</svg>
