<svg width="30" height="30" viewBox="0 0 30 30" fill="none" xmlns="http://www.w3.org/2000/svg">
<circle opacity="0.1" cx="15" cy="15" r="15" fill="#070F21"/>
<g opacity="0.8">
<path d="M21.714 13.0985L15.7494 7.13388C15.1328 6.51724 14.1293 6.5172 13.5127 7.13388C12.9583 7.68819 12.9106 8.53359 13.3199 9.13725L13.3116 9.17877C12.8816 11.3291 11.8347 13.2853 10.284 14.836L7.54818 17.5718C6.93006 18.19 6.92995 19.1904 7.54818 19.8085L9.03929 21.2996C9.65737 21.9178 10.6578 21.9178 11.276 21.2996L11.6488 20.9268L14.2583 23.5363C14.8764 24.1545 15.8768 24.1545 16.495 23.5363C17.1116 22.9197 17.1116 21.9163 16.495 21.2997L15.3766 20.1813L15.7494 19.8085C16.3675 19.1904 16.3676 18.19 15.7494 17.5719L15.4961 17.3185C16.7423 16.4459 18.1577 15.8385 19.6691 15.5362L19.7112 15.5278C20.3283 15.9444 21.1717 15.8774 21.714 15.3351H21.714C22.3306 14.7185 22.3306 13.7152 21.714 13.0985ZM10.5304 20.5541C10.3244 20.7601 9.99086 20.7601 9.78485 20.554L8.29373 19.0629C8.08768 18.8568 8.08768 18.5234 8.29373 18.3174L10.9032 15.7079L13.1399 17.9446C12.8846 18.1999 10.792 20.2925 10.5304 20.5541ZM15.7494 22.0452C15.9549 22.2507 15.9549 22.5852 15.7494 22.7908C15.5439 22.9963 15.2093 22.9963 15.0038 22.7908L12.3943 20.1813L13.1399 19.4357L15.7494 22.0452ZM13.8855 18.6901C14.0439 18.5317 14.2812 18.2889 14.6556 17.9691L15.0038 18.3174C15.2099 18.5234 15.2099 18.8568 15.0038 19.0629L14.631 19.4357L13.8855 18.6901ZM13.9079 17.2215L11.6263 14.9399C12.849 13.528 13.7246 11.8615 14.193 10.0509L18.7968 14.6547C16.9863 15.1231 15.3197 15.9987 13.9079 17.2215ZM20.9683 14.5896C20.7623 14.7956 20.4288 14.7956 20.2228 14.5896L14.2582 8.62499C14.0522 8.41891 14.0522 8.08549 14.2582 7.87944C14.4643 7.67339 14.7978 7.67339 15.0038 7.87944L20.9683 13.844C21.1739 14.0495 21.1739 14.384 20.9683 14.5896Z" fill="#070F21"/>
<path d="M11.276 17.5719C11.0701 17.366 10.7363 17.366 10.5304 17.5719L9.78485 18.3174C9.57897 18.5233 9.57897 18.8571 9.78485 19.063C9.99069 19.2689 10.3246 19.2689 10.5304 19.063L11.276 18.3174C11.4818 18.1116 11.4818 17.7778 11.276 17.5719Z" fill="#070F21"/>
<path d="M18.1707 6C17.8796 6 17.6435 6.23604 17.6435 6.5272V7.58161C17.6435 7.87277 17.8796 8.10881 18.1707 8.10881C18.4619 8.10881 18.6979 7.87277 18.6979 7.58161V6.5272C18.6979 6.23604 18.4619 6 18.1707 6Z" fill="#070F21"/>
<path d="M22.3883 10.2178H21.3339C21.0427 10.2178 20.8067 10.4538 20.8067 10.745C20.8067 11.0361 21.0427 11.2722 21.3339 11.2722H22.3883C22.6795 11.2722 22.9155 11.0361 22.9155 10.745C22.9155 10.4538 22.6794 10.2178 22.3883 10.2178Z" fill="#070F21"/>
<path d="M21.7067 7.20861C21.5009 7.00273 21.167 7.00273 20.9611 7.20861L19.9067 8.26301C19.7009 8.46888 19.7009 8.80269 19.9067 9.00857C20.1126 9.21444 20.4464 9.21448 20.6523 9.00857L21.7067 7.95416C21.9126 7.74829 21.9126 7.41451 21.7067 7.20861Z" fill="#070F21"/>
</g>
</svg>
