<svg width="30" height="30" viewBox="0 0 30 30" fill="none" xmlns="http://www.w3.org/2000/svg">
<circle opacity="0.1" cx="15" cy="15" r="15" fill="#070F21"/>
<g opacity="0.8" clip-path="url(#clip0_2_848)">
<path d="M23.4727 6H21.3633C21.072 6 20.8359 6.23611 20.8359 6.52734V7.05469H16.4913C16.2736 6.44093 15.6875 6 15 6C14.3125 6 13.7264 6.44093 13.5087 7.05469H9.16406V6.52734C9.16406 6.23611 8.92795 6 8.63672 6H6.52734C6.23611 6 6 6.23611 6 6.52734V8.63672C6 8.92795 6.23611 9.16406 6.52734 9.16406H8.63672C8.92795 9.16406 9.16406 8.92795 9.16406 8.63672V8.10234H11.357C9.45449 9.30729 8.29799 11.3429 8.15887 13.5038C7.53766 13.7174 7.08984 14.3072 7.08984 15C7.08984 15.8723 7.79954 16.582 8.67188 16.582C9.54421 16.582 10.2539 15.8723 10.2539 15C10.2539 14.3187 9.82096 13.7366 9.21574 13.5143C9.40298 11.0306 11.1915 8.89146 13.5831 8.28452C13.8423 8.80526 14.3799 9.16406 15 9.16406C15.6201 9.16406 16.1577 8.80526 16.4169 8.28456C18.8086 8.8915 20.597 11.0306 20.7843 13.5143C20.179 13.7366 19.7461 14.3187 19.7461 15C19.7461 15.8723 20.4558 16.582 21.3281 16.582C22.2005 16.582 22.9102 15.8723 22.9102 15C22.9102 14.3072 22.4623 13.7174 21.8411 13.5038C21.7017 11.3385 20.5418 9.31196 18.643 8.10938H20.8359V8.63672C20.8359 8.92795 21.072 9.16406 21.3633 9.16406H23.4727C23.7639 9.16406 24 8.92795 24 8.63672V6.52734C24 6.23611 23.7639 6 23.4727 6ZM8.10938 8.10938H7.05469V7.05469H8.10938V8.10938ZM8.67188 15.5273C8.3811 15.5273 8.14453 15.2908 8.14453 15C8.14453 14.7092 8.3811 14.4727 8.67188 14.4727C8.96265 14.4727 9.19922 14.7092 9.19922 15C9.19922 15.2908 8.96265 15.5273 8.67188 15.5273ZM15 8.10938C14.7092 8.10938 14.4727 7.87281 14.4727 7.58203C14.4727 7.29125 14.7092 7.05469 15 7.05469C15.2908 7.05469 15.5273 7.29125 15.5273 7.58203C15.5273 7.87281 15.2908 8.10938 15 8.10938ZM21.3281 14.4727C21.6189 14.4727 21.8555 14.7092 21.8555 15C21.8555 15.2908 21.6189 15.5273 21.3281 15.5273C21.0373 15.5273 20.8008 15.2908 20.8008 15C20.8008 14.7092 21.0373 14.4727 21.3281 14.4727ZM22.9453 8.10938H21.8906V7.05469H22.9453V8.10938Z" fill="#070F21"/>
<path d="M19.6575 16.8165L15.4387 10.4884C15.4386 10.4882 15.4384 10.488 15.4383 10.4877C15.4368 10.4855 15.4351 10.4833 15.4336 10.4811C15.4263 10.4706 15.4187 10.4605 15.4108 10.4506C15.1885 10.1745 14.7654 10.1931 14.5664 10.4811C14.5649 10.4833 14.5632 10.4855 14.5617 10.4877C14.5616 10.488 14.5614 10.4881 14.5612 10.4884L10.3425 16.8165C10.203 17.0257 10.2306 17.3042 10.4084 17.4819C11.4605 18.534 12.1302 19.9093 12.3126 21.3808C12.2307 21.447 12.1516 21.5179 12.0767 21.5946C11.5814 22.1012 11.3086 22.7681 11.3086 23.4723C11.3086 23.7635 11.5447 23.9996 11.8359 23.9996H18.1641C18.4553 23.9996 18.6914 23.7635 18.6914 23.4723C18.6914 22.7681 18.4186 22.1012 17.9233 21.5945C17.8484 21.5178 17.7693 21.4469 17.6874 21.3807C17.8698 19.9092 18.5395 18.5339 19.5916 17.4819C19.7694 17.3042 19.797 17.0256 19.6575 16.8165ZM15 16.5817C15.2908 16.5817 15.5273 16.8182 15.5273 17.109C15.5273 17.3998 15.2908 17.6364 15 17.6364C14.7092 17.6364 14.4727 17.3998 14.4727 17.109C14.4727 16.8182 14.7092 16.5817 15 16.5817ZM12.4532 22.9449C12.6726 22.318 13.2674 21.8551 13.9453 21.8551H16.0547C16.7326 21.8551 17.3274 22.318 17.5468 22.9449H12.4532ZM16.6961 20.8807C16.4887 20.8277 16.2737 20.8004 16.0547 20.8004H13.9453C13.7263 20.8004 13.5113 20.8277 13.3039 20.8807C13.0571 19.4594 12.4162 18.1308 11.4529 17.0522L14.4727 12.5226V15.6177C13.8589 15.8354 13.418 16.4216 13.418 17.109C13.418 17.9814 14.1277 18.6911 15 18.6911C15.8723 18.6911 16.582 17.9814 16.582 17.109C16.582 16.4216 16.1411 15.8354 15.5273 15.6177V12.5226L18.5471 17.0522C17.5838 18.1307 16.9429 19.4593 16.6961 20.8807Z" fill="#070F21"/>
</g>
<defs>
<clipPath id="clip0_2_848">
<rect width="18" height="18" fill="white" transform="translate(6 6)"/>
</clipPath>
</defs>
</svg>
