<svg width="16" height="16" viewBox="0 0 16 16" fill="none" xmlns="http://www.w3.org/2000/svg">
<g opacity="0.5" clip-path="url(#clip0_2_22680)">
<mask id="path-1-outside-1_2_22680" maskUnits="userSpaceOnUse" x="-0.33255" y="-0.207108" width="16" height="16" fill="black">
<rect fill="white" x="-0.33255" y="-0.207108" width="16" height="16"/>
<path d="M0.806178 2.47469C1.28788 2.01858 2.91472 0.129194 3.48944 1.03592C3.56908 1.16205 3.59536 1.31464 3.5625 1.46015C3.52964 1.60565 3.44033 1.73214 3.31422 1.8118C2.69491 2.20315 2.13294 2.6786 1.64441 3.22453C1.59179 3.28365 1.52722 3.33094 1.45498 3.36327C1.38274 3.39561 1.30446 3.41225 1.22531 3.41211C1.11743 3.41052 1.01226 3.37814 0.92216 3.31879C0.832064 3.25943 0.760802 3.17557 0.716764 3.07708C0.672726 2.97859 0.657746 2.86956 0.673586 2.76284C0.689427 2.65612 0.73543 2.55615 0.806178 2.47469ZM11.6116 1.8118C12.231 2.20345 12.7931 2.67897 13.282 3.22481C13.3346 3.28385 13.3992 3.33106 13.4715 3.36334C13.5437 3.39562 13.6219 3.41225 13.7011 3.41211C13.809 3.41051 13.9142 3.37811 14.0043 3.31874C14.0944 3.25936 14.1656 3.17548 14.2097 3.07696C14.2537 2.97845 14.2687 2.8694 14.2528 2.76267C14.2369 2.65593 14.1909 2.55595 14.1201 2.47449C13.6367 2.01812 12.0141 0.130364 11.4364 1.03588C11.3568 1.162 11.3305 1.3146 11.3633 1.46012C11.3962 1.60563 11.4855 1.73213 11.6116 1.8118ZM12.0384 13.4327C12.4002 13.0972 13.0576 12.5535 12.5283 12.0715C12.4149 11.9747 12.2678 11.9268 12.1192 11.9383C11.9705 11.9497 11.8325 12.0195 11.7352 12.1325C10.9876 13.0056 9.9904 13.6287 8.87789 13.9179C7.76537 14.2072 6.59096 14.1485 5.51277 13.75C4.43458 13.3515 3.50438 12.6322 2.84742 11.6889C2.19046 10.7457 1.83829 9.62375 1.83831 8.47427C1.86172 2.86079 9.23596 0.737996 12.229 5.486C12.3099 5.60914 12.4358 5.69566 12.5797 5.72698C12.7236 5.75831 12.8741 5.73193 12.9988 5.65353C13.1235 5.57512 13.2125 5.45093 13.2466 5.30764C13.2808 5.16435 13.2574 5.01338 13.1814 4.88717C12.5761 3.917 11.7332 3.11738 10.7325 2.56397C9.7318 2.01057 8.60643 1.72171 7.46292 1.72473C1.33409 1.7185 -1.59188 9.34762 2.89323 13.4272L2.05692 14.2636C2.0047 14.3159 1.96327 14.3779 1.93501 14.4461C1.90675 14.5143 1.8922 14.5875 1.8922 14.6613C1.8922 14.7352 1.90675 14.8083 1.93501 14.8765C1.96327 14.9448 2.0047 15.0068 2.05692 15.059C2.10915 15.1112 2.17114 15.1526 2.23938 15.1809C2.30761 15.2092 2.38074 15.2237 2.4546 15.2237C2.52845 15.2237 2.60159 15.2092 2.66982 15.1809C2.73805 15.1526 2.80005 15.1112 2.85228 15.059L3.78492 14.1262C4.88017 14.8357 6.15738 15.2132 7.4624 15.2129C8.76742 15.2126 10.0445 14.8346 11.1394 14.1245L12.0741 15.059C12.1263 15.1115 12.1883 15.1532 12.2566 15.1817C12.3249 15.2102 12.3982 15.225 12.4722 15.2251C12.5462 15.2252 12.6195 15.2108 12.6879 15.1825C12.7564 15.1542 12.8185 15.1127 12.8709 15.0604C12.9232 15.008 12.9647 14.9459 12.993 14.8775C13.0212 14.8091 13.0357 14.7357 13.0356 14.6617C13.0354 14.5877 13.0207 14.5144 12.9922 14.4461C12.9637 14.3778 12.922 14.3158 12.8694 14.2636L12.0384 13.4327ZM7.46292 4.37637C7.38905 4.37635 7.3159 4.39088 7.24765 4.41914C7.1794 4.4474 7.11739 4.48883 7.06515 4.54107C7.01292 4.5933 6.97149 4.65531 6.94323 4.72356C6.91497 4.79181 6.90044 4.86496 6.90046 4.93883V8.47426C6.90044 8.54812 6.91497 8.62127 6.94323 8.68952C6.97149 8.75777 7.01292 8.81979 7.06515 8.87202C7.11739 8.92425 7.1794 8.96568 7.24765 8.99394C7.3159 9.0222 7.38905 9.03674 7.46292 9.03672H9.81987C9.96714 9.03384 10.1074 8.97332 10.2106 8.86814C10.3137 8.76297 10.3715 8.62154 10.3715 8.47424C10.3715 8.32694 10.3137 8.18551 10.2105 8.08034C10.1074 7.97518 9.96711 7.91466 9.81984 7.91179H8.02538V4.93883C8.0254 4.86496 8.01086 4.79181 7.9826 4.72356C7.95434 4.65531 7.91291 4.5933 7.86068 4.54107C7.80845 4.48883 7.74643 4.4474 7.67818 4.41914C7.60993 4.39088 7.53679 4.37635 7.46292 4.37637ZM14.7749 9.68624H13.6955L15.2143 7.78766C15.2789 7.70448 15.319 7.60493 15.3301 7.50021C15.3413 7.39548 15.323 7.28972 15.2774 7.19481C15.2317 7.0999 15.1605 7.0196 15.0718 6.96292C14.983 6.90624 14.8802 6.87543 14.7749 6.87395H12.525C12.3777 6.87675 12.2374 6.93724 12.1342 7.04242C12.031 7.1476 11.9732 7.28907 11.9732 7.43642C11.9732 7.58378 12.031 7.72525 12.1342 7.83042C12.2374 7.93559 12.3777 7.99608 12.5251 7.99887H13.6044L12.0856 9.89744C12.021 9.98063 11.9809 10.0802 11.9698 10.1849C11.9586 10.2896 11.9769 10.3954 12.0225 10.4903C12.0682 10.5852 12.1394 10.6655 12.2282 10.7222C12.317 10.7789 12.4198 10.8097 12.5251 10.8112H14.7749C14.9222 10.8083 15.0625 10.7478 15.1656 10.6426C15.2687 10.5374 15.3265 10.396 15.3265 10.2487C15.3265 10.1014 15.2687 9.95997 15.1656 9.85481C15.0625 9.74964 14.9222 9.68912 14.7749 9.68625V9.68624Z"/>
</mask>
<path d="M0.806178 2.47469C1.28788 2.01858 2.91472 0.129194 3.48944 1.03592C3.56908 1.16205 3.59536 1.31464 3.5625 1.46015C3.52964 1.60565 3.44033 1.73214 3.31422 1.8118C2.69491 2.20315 2.13294 2.6786 1.64441 3.22453C1.59179 3.28365 1.52722 3.33094 1.45498 3.36327C1.38274 3.39561 1.30446 3.41225 1.22531 3.41211C1.11743 3.41052 1.01226 3.37814 0.92216 3.31879C0.832064 3.25943 0.760802 3.17557 0.716764 3.07708C0.672726 2.97859 0.657746 2.86956 0.673586 2.76284C0.689427 2.65612 0.73543 2.55615 0.806178 2.47469ZM11.6116 1.8118C12.231 2.20345 12.7931 2.67897 13.282 3.22481C13.3346 3.28385 13.3992 3.33106 13.4715 3.36334C13.5437 3.39562 13.6219 3.41225 13.7011 3.41211C13.809 3.41051 13.9142 3.37811 14.0043 3.31874C14.0944 3.25936 14.1656 3.17548 14.2097 3.07696C14.2537 2.97845 14.2687 2.8694 14.2528 2.76267C14.2369 2.65593 14.1909 2.55595 14.1201 2.47449C13.6367 2.01812 12.0141 0.130364 11.4364 1.03588C11.3568 1.162 11.3305 1.3146 11.3633 1.46012C11.3962 1.60563 11.4855 1.73213 11.6116 1.8118ZM12.0384 13.4327C12.4002 13.0972 13.0576 12.5535 12.5283 12.0715C12.4149 11.9747 12.2678 11.9268 12.1192 11.9383C11.9705 11.9497 11.8325 12.0195 11.7352 12.1325C10.9876 13.0056 9.9904 13.6287 8.87789 13.9179C7.76537 14.2072 6.59096 14.1485 5.51277 13.75C4.43458 13.3515 3.50438 12.6322 2.84742 11.6889C2.19046 10.7457 1.83829 9.62375 1.83831 8.47427C1.86172 2.86079 9.23596 0.737996 12.229 5.486C12.3099 5.60914 12.4358 5.69566 12.5797 5.72698C12.7236 5.75831 12.8741 5.73193 12.9988 5.65353C13.1235 5.57512 13.2125 5.45093 13.2466 5.30764C13.2808 5.16435 13.2574 5.01338 13.1814 4.88717C12.5761 3.917 11.7332 3.11738 10.7325 2.56397C9.7318 2.01057 8.60643 1.72171 7.46292 1.72473C1.33409 1.7185 -1.59188 9.34762 2.89323 13.4272L2.05692 14.2636C2.0047 14.3159 1.96327 14.3779 1.93501 14.4461C1.90675 14.5143 1.8922 14.5875 1.8922 14.6613C1.8922 14.7352 1.90675 14.8083 1.93501 14.8765C1.96327 14.9448 2.0047 15.0068 2.05692 15.059C2.10915 15.1112 2.17114 15.1526 2.23938 15.1809C2.30761 15.2092 2.38074 15.2237 2.4546 15.2237C2.52845 15.2237 2.60159 15.2092 2.66982 15.1809C2.73805 15.1526 2.80005 15.1112 2.85228 15.059L3.78492 14.1262C4.88017 14.8357 6.15738 15.2132 7.4624 15.2129C8.76742 15.2126 10.0445 14.8346 11.1394 14.1245L12.0741 15.059C12.1263 15.1115 12.1883 15.1532 12.2566 15.1817C12.3249 15.2102 12.3982 15.225 12.4722 15.2251C12.5462 15.2252 12.6195 15.2108 12.6879 15.1825C12.7564 15.1542 12.8185 15.1127 12.8709 15.0604C12.9232 15.008 12.9647 14.9459 12.993 14.8775C13.0212 14.8091 13.0357 14.7357 13.0356 14.6617C13.0354 14.5877 13.0207 14.5144 12.9922 14.4461C12.9637 14.3778 12.922 14.3158 12.8694 14.2636L12.0384 13.4327ZM7.46292 4.37637C7.38905 4.37635 7.3159 4.39088 7.24765 4.41914C7.1794 4.4474 7.11739 4.48883 7.06515 4.54107C7.01292 4.5933 6.97149 4.65531 6.94323 4.72356C6.91497 4.79181 6.90044 4.86496 6.90046 4.93883V8.47426C6.90044 8.54812 6.91497 8.62127 6.94323 8.68952C6.97149 8.75777 7.01292 8.81979 7.06515 8.87202C7.11739 8.92425 7.1794 8.96568 7.24765 8.99394C7.3159 9.0222 7.38905 9.03674 7.46292 9.03672H9.81987C9.96714 9.03384 10.1074 8.97332 10.2106 8.86814C10.3137 8.76297 10.3715 8.62154 10.3715 8.47424C10.3715 8.32694 10.3137 8.18551 10.2105 8.08034C10.1074 7.97518 9.96711 7.91466 9.81984 7.91179H8.02538V4.93883C8.0254 4.86496 8.01086 4.79181 7.9826 4.72356C7.95434 4.65531 7.91291 4.5933 7.86068 4.54107C7.80845 4.48883 7.74643 4.4474 7.67818 4.41914C7.60993 4.39088 7.53679 4.37635 7.46292 4.37637ZM14.7749 9.68624H13.6955L15.2143 7.78766C15.2789 7.70448 15.319 7.60493 15.3301 7.50021C15.3413 7.39548 15.323 7.28972 15.2774 7.19481C15.2317 7.0999 15.1605 7.0196 15.0718 6.96292C14.983 6.90624 14.8802 6.87543 14.7749 6.87395H12.525C12.3777 6.87675 12.2374 6.93724 12.1342 7.04242C12.031 7.1476 11.9732 7.28907 11.9732 7.43642C11.9732 7.58378 12.031 7.72525 12.1342 7.83042C12.2374 7.93559 12.3777 7.99608 12.5251 7.99887H13.6044L12.0856 9.89744C12.021 9.98063 11.9809 10.0802 11.9698 10.1849C11.9586 10.2896 11.9769 10.3954 12.0225 10.4903C12.0682 10.5852 12.1394 10.6655 12.2282 10.7222C12.317 10.7789 12.4198 10.8097 12.5251 10.8112H14.7749C14.9222 10.8083 15.0625 10.7478 15.1656 10.6426C15.2687 10.5374 15.3265 10.396 15.3265 10.2487C15.3265 10.1014 15.2687 9.95997 15.1656 9.85481C15.0625 9.74964 14.9222 9.68912 14.7749 9.68625V9.68624Z" fill="#070F21"/>
<path d="M0.806178 2.47469C1.28788 2.01858 2.91472 0.129194 3.48944 1.03592C3.56908 1.16205 3.59536 1.31464 3.5625 1.46015C3.52964 1.60565 3.44033 1.73214 3.31422 1.8118C2.69491 2.20315 2.13294 2.6786 1.64441 3.22453C1.59179 3.28365 1.52722 3.33094 1.45498 3.36327C1.38274 3.39561 1.30446 3.41225 1.22531 3.41211C1.11743 3.41052 1.01226 3.37814 0.92216 3.31879C0.832064 3.25943 0.760802 3.17557 0.716764 3.07708C0.672726 2.97859 0.657746 2.86956 0.673586 2.76284C0.689427 2.65612 0.73543 2.55615 0.806178 2.47469ZM11.6116 1.8118C12.231 2.20345 12.7931 2.67897 13.282 3.22481C13.3346 3.28385 13.3992 3.33106 13.4715 3.36334C13.5437 3.39562 13.6219 3.41225 13.7011 3.41211C13.809 3.41051 13.9142 3.37811 14.0043 3.31874C14.0944 3.25936 14.1656 3.17548 14.2097 3.07696C14.2537 2.97845 14.2687 2.8694 14.2528 2.76267C14.2369 2.65593 14.1909 2.55595 14.1201 2.47449C13.6367 2.01812 12.0141 0.130364 11.4364 1.03588C11.3568 1.162 11.3305 1.3146 11.3633 1.46012C11.3962 1.60563 11.4855 1.73213 11.6116 1.8118ZM12.0384 13.4327C12.4002 13.0972 13.0576 12.5535 12.5283 12.0715C12.4149 11.9747 12.2678 11.9268 12.1192 11.9383C11.9705 11.9497 11.8325 12.0195 11.7352 12.1325C10.9876 13.0056 9.9904 13.6287 8.87789 13.9179C7.76537 14.2072 6.59096 14.1485 5.51277 13.75C4.43458 13.3515 3.50438 12.6322 2.84742 11.6889C2.19046 10.7457 1.83829 9.62375 1.83831 8.47427C1.86172 2.86079 9.23596 0.737996 12.229 5.486C12.3099 5.60914 12.4358 5.69566 12.5797 5.72698C12.7236 5.75831 12.8741 5.73193 12.9988 5.65353C13.1235 5.57512 13.2125 5.45093 13.2466 5.30764C13.2808 5.16435 13.2574 5.01338 13.1814 4.88717C12.5761 3.917 11.7332 3.11738 10.7325 2.56397C9.7318 2.01057 8.60643 1.72171 7.46292 1.72473C1.33409 1.7185 -1.59188 9.34762 2.89323 13.4272L2.05692 14.2636C2.0047 14.3159 1.96327 14.3779 1.93501 14.4461C1.90675 14.5143 1.8922 14.5875 1.8922 14.6613C1.8922 14.7352 1.90675 14.8083 1.93501 14.8765C1.96327 14.9448 2.0047 15.0068 2.05692 15.059C2.10915 15.1112 2.17114 15.1526 2.23938 15.1809C2.30761 15.2092 2.38074 15.2237 2.4546 15.2237C2.52845 15.2237 2.60159 15.2092 2.66982 15.1809C2.73805 15.1526 2.80005 15.1112 2.85228 15.059L3.78492 14.1262C4.88017 14.8357 6.15738 15.2132 7.4624 15.2129C8.76742 15.2126 10.0445 14.8346 11.1394 14.1245L12.0741 15.059C12.1263 15.1115 12.1883 15.1532 12.2566 15.1817C12.3249 15.2102 12.3982 15.225 12.4722 15.2251C12.5462 15.2252 12.6195 15.2108 12.6879 15.1825C12.7564 15.1542 12.8185 15.1127 12.8709 15.0604C12.9232 15.008 12.9647 14.9459 12.993 14.8775C13.0212 14.8091 13.0357 14.7357 13.0356 14.6617C13.0354 14.5877 13.0207 14.5144 12.9922 14.4461C12.9637 14.3778 12.922 14.3158 12.8694 14.2636L12.0384 13.4327ZM7.46292 4.37637C7.38905 4.37635 7.3159 4.39088 7.24765 4.41914C7.1794 4.4474 7.11739 4.48883 7.06515 4.54107C7.01292 4.5933 6.97149 4.65531 6.94323 4.72356C6.91497 4.79181 6.90044 4.86496 6.90046 4.93883V8.47426C6.90044 8.54812 6.91497 8.62127 6.94323 8.68952C6.97149 8.75777 7.01292 8.81979 7.06515 8.87202C7.11739 8.92425 7.1794 8.96568 7.24765 8.99394C7.3159 9.0222 7.38905 9.03674 7.46292 9.03672H9.81987C9.96714 9.03384 10.1074 8.97332 10.2106 8.86814C10.3137 8.76297 10.3715 8.62154 10.3715 8.47424C10.3715 8.32694 10.3137 8.18551 10.2105 8.08034C10.1074 7.97518 9.96711 7.91466 9.81984 7.91179H8.02538V4.93883C8.0254 4.86496 8.01086 4.79181 7.9826 4.72356C7.95434 4.65531 7.91291 4.5933 7.86068 4.54107C7.80845 4.48883 7.74643 4.4474 7.67818 4.41914C7.60993 4.39088 7.53679 4.37635 7.46292 4.37637ZM14.7749 9.68624H13.6955L15.2143 7.78766C15.2789 7.70448 15.319 7.60493 15.3301 7.50021C15.3413 7.39548 15.323 7.28972 15.2774 7.19481C15.2317 7.0999 15.1605 7.0196 15.0718 6.96292C14.983 6.90624 14.8802 6.87543 14.7749 6.87395H12.525C12.3777 6.87675 12.2374 6.93724 12.1342 7.04242C12.031 7.1476 11.9732 7.28907 11.9732 7.43642C11.9732 7.58378 12.031 7.72525 12.1342 7.83042C12.2374 7.93559 12.3777 7.99608 12.5251 7.99887H13.6044L12.0856 9.89744C12.021 9.98063 11.9809 10.0802 11.9698 10.1849C11.9586 10.2896 11.9769 10.3954 12.0225 10.4903C12.0682 10.5852 12.1394 10.6655 12.2282 10.7222C12.317 10.7789 12.4198 10.8097 12.5251 10.8112H14.7749C14.9222 10.8083 15.0625 10.7478 15.1656 10.6426C15.2687 10.5374 15.3265 10.396 15.3265 10.2487C15.3265 10.1014 15.2687 9.95997 15.1656 9.85481C15.0625 9.74964 14.9222 9.68912 14.7749 9.68625V9.68624Z" stroke="#070F21" stroke-width="0.2" mask="url(#path-1-outside-1_2_22680)"/>
</g>
<defs>
<clipPath id="clip0_2_22680">
<rect width="16" height="16" fill="white"/>
</clipPath>
</defs>
</svg>
