<svg width="22" height="22" viewBox="0 0 22 22" fill="none" xmlns="http://www.w3.org/2000/svg">
<path d="M9.83527 18.6353C11.3235 18.6353 12.6823 18.3117 13.9764 17.6L17.4706 21.0941C18.4412 22.0647 20.0588 22.0647 21.0941 21.0941C22.1294 20.1235 22.1294 18.4412 21.0941 17.4706L17.6 13.9764C18.247 12.747 18.6353 11.3235 18.6353 9.83527C18.6353 5.04703 14.6882 1.09998 9.83527 1.09998C5.04703 1.09998 1.09998 5.04703 1.09998 9.83527C1.09998 14.6882 5.04703 18.6353 9.83527 18.6353ZM20.1235 18.3764C20.6412 18.8941 20.6412 19.6706 20.1235 20.1882C19.6059 20.7059 18.8294 20.7059 18.3117 20.1882L15.0117 16.8882C15.7882 16.3059 16.2412 15.8529 16.8235 15.0764L20.1235 18.3764ZM9.83527 2.39409C13.9764 2.39409 17.2764 5.7588 17.2764 9.83527C17.2764 13.9764 13.9117 17.2764 9.83527 17.2764C5.7588 17.3412 2.39409 13.9764 2.39409 9.83527C2.39409 5.7588 5.7588 2.39409 9.83527 2.39409Z" fill="#070F21"/>
<path d="M5.95292 14.0412H13.7176C14.1059 14.0412 14.3647 13.7823 14.3647 13.3941V12.4235C14.3647 11.1294 13.3294 9.83527 12.4882 9.12351C12.6823 8.73527 12.747 8.34703 12.747 7.89409C12.747 6.27645 11.4529 4.98233 9.83527 4.98233C8.21762 4.98233 6.9235 6.27645 6.9235 7.89409C6.9235 8.34703 7.05292 8.73527 7.18233 9.12351C6.21174 9.83527 5.30586 11 5.30586 12.4235V13.3941C5.30586 13.7823 5.62939 14.0412 5.95292 14.0412ZM9.83527 6.27645C10.7412 6.27645 11.4529 6.98821 11.4529 7.89409C11.4529 8.79998 10.7412 9.51174 9.83527 9.51174C8.92939 9.51174 8.21762 8.79998 8.21762 7.89409C8.21762 6.98821 8.99409 6.27645 9.83527 6.27645ZM6.59998 12.4235C6.59998 11.5176 7.24703 10.6764 8.0235 10.1588C8.54115 10.547 9.1235 10.8059 9.83527 10.8059C10.547 10.8059 11.1294 10.547 11.647 10.1588C12.2294 10.6117 13.0706 11.647 13.0706 12.4235V12.747H6.59998V12.4235Z" fill="#070F21"/>
</svg>
